<?xml version="1.0" encoding="UTF-8" standalone="no"?>
<svg
   xmlns:dc="http://purl.org/dc/elements/1.1/"
   xmlns:cc="http://creativecommons.org/ns#"
   xmlns:rdf="http://www.w3.org/1999/02/22-rdf-syntax-ns#"
   xmlns:svg="http://www.w3.org/2000/svg"
   xmlns="http://www.w3.org/2000/svg"
   xmlns:sodipodi="http://sodipodi.sourceforge.net/DTD/sodipodi-0.dtd"
   xmlns:inkscape="http://www.inkscape.org/namespaces/inkscape"
   version="1.1"
   id="svg2"
   xml:space="preserve"
   width="398.66666"
   height="209.33333"
   viewBox="0 0 398.66666 209.33333"
   sodipodi:docname="SofTec_logo.eps"><metadata
     id="metadata8"><rdf:RDF><cc:Work
         rdf:about=""><dc:format>image/svg+xml</dc:format><dc:type
           rdf:resource="http://purl.org/dc/dcmitype/StillImage" /></cc:Work></rdf:RDF></metadata><defs
     id="defs6"><clipPath
       clipPathUnits="userSpaceOnUse"
       id="clipPath20"><path
         d="m 0,1182.18 h 2990 v 387.816 H 0 Z"
         id="path18" /></clipPath><clipPath
       clipPathUnits="userSpaceOnUse"
       id="clipPath30"><path
         d="m 911.262,0.0273438 h 1167.43 V 1007.6673 H 911.262 Z"
         id="path28" /></clipPath></defs><sodipodi:namedview
     pagecolor="#ffffff"
     bordercolor="#666666"
     borderopacity="1"
     objecttolerance="10"
     gridtolerance="10"
     guidetolerance="10"
     inkscape:pageopacity="0"
     inkscape:pageshadow="2"
     inkscape:window-width="640"
     inkscape:window-height="480"
     id="namedview4" /><g
     id="g10"
     inkscape:groupmode="layer"
     inkscape:label="ink_ext_XXXXXX"
     transform="matrix(1.3333333,0,0,-1.3333333,0,209.33333)"><g
       id="g12"
       transform="scale(0.1)"><g
         id="g14"><g
           id="g16"
           clip-path="url(#clipPath20)"><path
             d="m 199.984,1223.11 v 0 c 0,7.93 2.528,14.84 7.582,20.72 5.055,5.93 11.36,9.62 18.918,11.07 v 0 c 25.575,7.53 38.36,21 38.36,40.4 v 0 c 0,32.32 -33.332,48.47 -99.992,48.47 v 0 c -50.098,0 -90.0825,9.53 -119.9614,28.58 C 14.9648,1391.36 0,1419.53 0,1456.89 v 0 c 0,24.04 7.48047,44.78 22.4453,62.24 14.9649,17.41 35.582,30.6 61.8555,39.57 v 0 c 5.7578,1.8 10.0859,2.7 12.9883,2.7 v 0 c 9.0079,0 16.6639,-3.15 22.9729,-9.43 6.304,-6.28 9.457,-13.92 9.457,-22.89 v 0 c 0,-14.37 -9.008,-24.96 -27.024,-31.79 v 0 C 77.4727,1489 64.8594,1475.54 64.8594,1456.89 v 0 c 0,-32.32 33.332,-48.48 99.9926,-48.48 v 0 c 50.097,0 90.082,-9.53 119.961,-28.58 29.925,-19 44.89,-47.18 44.89,-84.53 v 0 c 0,-24.44 -7.48,-45.36 -22.445,-62.77 -14.965,-17.4 -35.758,-30.6 -62.383,-39.57 v 0 c -1.102,-0.35 -5.254,-1.07 -12.461,-2.17 v 0 c -9.008,0 -16.664,3.14 -22.973,9.42 -6.304,6.29 -9.457,13.92 -9.457,22.9 z m -156.2184,44.21 v 0 c 19.1172,-7.18 37.6836,-12.57 55.6992,-16.16 v 0 c 8.6602,-1.8 15.8672,-5.66 21.6212,-11.6 5.754,-5.93 8.633,-12.84 8.633,-20.72 v 0 c 0,-8.98 -3.153,-16.61 -9.457,-22.89 -6.309,-6.28 -13.965,-9.43 -22.9729,-9.43 v 0 l -8.1055,1.05 c -27.7266,5.04 -49.8984,11.15 -66.5117,18.33 v 0 c -8.2578,2.84 -14.46487,8.5 -18.61721,16.98 -4.156253,8.43 -4.605471,16.76 -1.35156,24.99 v 0 c 3.60156,8.97 9.28127,15.18 17.03907,18.63 7.7578,3.39 15.7656,3.66 24.0234,0.82 z m 156.2184,263.33 v 0 c 0,8.98 3.153,16.61 9.457,22.89 6.309,6.28 13.965,9.43 22.973,9.43 v 0 c 0.352,0 3.777,-0.52 10.285,-1.57 v 0 c 14.762,-3.24 30.801,-8.45 48.117,-15.64 v 0 c 9.008,-3.94 15.391,-9.67 19.145,-17.21 3.801,-7.57 4.078,-15.48 0.824,-23.71 v 0 c -7.555,-19.05 -21.07,-25.71 -40.535,-19.97 v 0 c -12.262,5.03 -27.027,9.72 -44.293,14.06 v 0 c -7.605,1.8 -13.836,5.64 -18.691,11.52 -4.856,5.94 -7.282,12.67 -7.282,20.2 z m 538.321,-315.1 v 0 c -3.606,7.93 -3.782,16.11 -0.528,24.54 3.254,8.43 9.008,14.44 17.266,18.03 v 0 c 23.07,10.07 41.738,25.78 56.004,47.13 14.211,21.39 21.316,45.01 21.316,70.84 0,25.84 -7.105,49.35 -21.316,70.55 -14.266,21.2 -32.934,37 -56.004,47.43 v 0 c -8.258,3.94 -13.91,10.05 -16.965,18.32 -3.101,8.24 -2.851,16.31 0.75,24.25 v 0 c 4.004,8.22 10.137,13.86 18.395,16.9 8.304,3.09 16.965,2.64 25.972,-1.34 v 0 c 34.231,-15.77 61.782,-39.45 82.653,-71.07 20.918,-31.62 31.379,-66.63 31.379,-105.04 v 0 c 0,-39.15 -10.637,-74.61 -31.907,-106.38 -21.269,-31.76 -49.195,-55.38 -83.777,-70.84 v 0 c -8.258,-3.59 -16.641,-3.77 -25.148,-0.53 -8.457,3.25 -14.489,8.98 -18.09,17.21 z m -230.239,160.54 v 0 c 0,38.41 10.36,73.52 31.079,105.34 20.718,31.77 48.019,55.36 81.902,70.77 v 0 c 9.359,3.98 18.191,4.43 26.5,1.34 8.258,-3.04 14.363,-8.68 18.316,-16.9 v 0 c 3.602,-8.28 3.879,-16.46 0.825,-24.54 -3.051,-8.08 -8.735,-14.09 -17.04,-18.03 v 0 c -22.671,-10.43 -41.14,-26.23 -55.402,-47.43 -14.215,-21.2 -21.32,-44.71 -21.32,-70.55 0,-25.83 7.105,-49.45 21.32,-70.84 14.262,-21.35 32.731,-37.06 55.402,-47.13 v 0 c 8.305,-3.59 14.086,-9.6 17.34,-18.03 3.254,-8.43 3.078,-16.61 -0.527,-24.54 v 0 c -3.602,-8.23 -9.656,-13.96 -18.164,-17.21 -8.457,-3.24 -16.817,-3.06 -25.074,0.53 v 0 c -34.633,15.46 -62.481,39.08 -83.551,70.84 -21.07,31.77 -31.606,67.23 -31.606,106.38 z M 1086.4,1214.5 v 0 323.18 c 0,8.98 3.15,16.61 9.46,22.89 6.3,6.29 13.96,9.43 22.97,9.43 9.01,0 16.66,-3.14 22.97,-9.43 6.31,-6.28 9.46,-13.91 9.46,-22.89 v 0 -323.18 c 0,-8.97 -3.15,-16.61 -9.46,-22.89 -6.31,-6.28 -13.96,-9.43 -22.97,-9.43 -9.01,0 -16.67,3.15 -22.97,9.43 -6.31,6.28 -9.46,13.92 -9.46,22.89 z m 144.58,300.29 c -6.3,6.28 -9.46,13.91 -9.46,22.89 0,8.98 3.16,16.61 9.46,22.89 6.31,6.29 13.97,9.43 22.97,9.43 v 0 h 135.13 c 9.01,0 16.66,-3.14 22.97,-9.43 6.31,-6.28 9.46,-13.91 9.46,-22.89 0,-8.98 -3.15,-16.61 -9.46,-22.89 -6.31,-6.28 -13.96,-9.43 -22.97,-9.43 v 0 h -135.13 c -9,0 -16.66,3.15 -22.97,9.43 z m 104.05,-171.02 h -81.08 c -9,0 -16.66,3.15 -22.97,9.43 -6.3,6.28 -9.46,13.92 -9.46,22.89 0,8.98 3.16,16.61 9.46,22.89 6.31,6.29 13.97,9.43 22.97,9.43 v 0 h 81.08 c 9.01,0 16.66,-3.14 22.97,-9.43 6.3,-6.28 9.46,-13.91 9.46,-22.89 0,-8.97 -3.16,-16.61 -9.46,-22.89 -6.31,-6.28 -13.96,-9.43 -22.97,-9.43 z m 605.35,161.59 v 0 h -324.29 c -9.01,0 -16.67,3.15 -22.98,9.43 -6.3,6.28 -9.45,13.91 -9.45,22.89 0,8.98 3.15,16.61 9.45,22.89 6.31,6.29 13.97,9.43 22.98,9.43 v 0 h 324.29 c 9.01,0 16.67,-3.14 22.98,-9.43 6.3,-6.28 9.45,-13.91 9.45,-22.89 0,-8.98 -3.15,-16.61 -9.45,-22.89 -6.31,-6.28 -13.97,-9.43 -22.98,-9.43 z M 1745.8,1214.5 v 0 188.52 c 0,8.98 3.16,16.61 9.46,22.9 6.31,6.28 13.97,9.42 22.97,9.42 9.01,0 16.67,-3.14 22.98,-9.42 6.3,-6.29 9.45,-13.92 9.45,-22.9 v 0 -188.52 c 0,-8.97 -3.15,-16.61 -9.45,-22.89 -6.31,-6.28 -13.97,-9.43 -22.98,-9.43 -9,0 -16.66,3.15 -22.97,9.43 -6.3,6.28 -9.46,13.92 -9.46,22.89 z m 410.78,0 v 0 323.18 c 0,8.98 3.15,16.61 9.46,22.89 6.31,6.29 13.96,9.43 22.97,9.43 9.01,0 16.67,-3.14 22.97,-9.43 6.31,-6.28 9.46,-13.91 9.46,-22.89 v 0 -323.18 c 0,-8.97 -3.15,-16.61 -9.46,-22.89 -6.3,-6.28 -13.96,-9.43 -22.97,-9.43 -9.01,0 -16.66,3.15 -22.97,9.43 -6.31,6.28 -9.46,13.92 -9.46,22.89 z m 144.58,300.29 c -6.3,6.28 -9.45,13.91 -9.45,22.89 0,8.98 3.15,16.61 9.45,22.89 6.31,6.29 13.97,9.43 22.98,9.43 v 0 h 135.12 c 9.01,0 16.67,-3.14 22.97,-9.43 6.31,-6.28 9.46,-13.91 9.46,-22.89 0,-8.98 -3.15,-16.61 -9.46,-22.89 -6.3,-6.28 -13.96,-9.43 -22.97,-9.43 v 0 h -135.12 c -9.01,0 -16.67,3.15 -22.98,9.43 z m 0,-323.18 c -6.3,6.28 -9.45,13.92 -9.45,22.89 0,8.98 3.15,16.61 9.45,22.89 6.31,6.29 13.97,9.43 22.98,9.43 v 0 h 135.12 c 9.01,0 16.67,-3.14 22.97,-9.43 6.31,-6.28 9.46,-13.91 9.46,-22.89 0,-8.97 -3.15,-16.61 -9.46,-22.89 -6.3,-6.28 -13.96,-9.43 -22.97,-9.43 v 0 h -135.12 c -9.01,0 -16.67,3.15 -22.98,9.43 z m 104.05,152.16 h -81.07 c -9.01,0 -16.67,3.15 -22.98,9.43 -6.3,6.28 -9.45,13.92 -9.45,22.89 0,8.98 3.15,16.61 9.45,22.89 6.31,6.29 13.97,9.43 22.98,9.43 v 0 h 81.07 c 9.01,0 16.67,-3.14 22.97,-9.43 6.31,-6.28 9.46,-13.91 9.46,-22.89 0,-8.97 -3.15,-16.61 -9.46,-22.89 -6.3,-6.28 -13.96,-9.43 -22.97,-9.43 z m 243.22,32.32 v 0 c 0,38.41 10.36,73.52 31.08,105.34 20.72,31.77 48.02,55.36 81.9,70.77 v 0 c 9.36,3.98 18.2,4.43 26.5,1.34 8.26,-3.04 14.37,-8.68 18.32,-16.9 v 0 c 3.6,-8.28 3.88,-16.46 0.82,-24.54 -3.05,-8.08 -8.73,-14.09 -17.03,-18.03 v 0 c -22.68,-10.43 -41.14,-26.23 -55.41,-47.43 -14.21,-21.2 -21.32,-44.71 -21.32,-70.55 0,-25.83 7.11,-49.45 21.32,-70.84 14.27,-21.35 32.73,-37.06 55.41,-47.13 v 0 c 8.3,-3.59 14.08,-9.6 17.34,-18.03 3.25,-8.43 3.07,-16.61 -0.53,-24.54 v 0 c -3.6,-8.23 -9.66,-13.96 -18.17,-17.21 -8.45,-3.24 -16.81,-3.06 -25.07,0.53 v 0 c -34.63,15.46 -62.48,39.08 -83.55,70.84 -21.07,31.77 -31.61,67.23 -31.61,106.38 z m 230.24,-160.54 v 0 c -3.6,7.93 -3.78,16.11 -0.53,24.54 3.26,8.43 9.01,14.44 17.27,18.03 v 0 c 15.87,7.53 28.85,16.33 38.96,26.4 v 0 c 6.46,6.49 14.19,9.73 23.2,9.73 9.01,0 16.66,-3.14 22.97,-9.43 6.3,-6.28 9.46,-13.91 9.46,-22.89 0,-8.97 -3.23,-16.7 -9.69,-23.19 v 0 c -16.56,-16.51 -36.03,-29.8 -58.4,-39.87 v 0 c -8.26,-3.59 -16.64,-3.77 -25.15,-0.53 -8.46,3.25 -14.49,8.98 -18.09,17.21 z m 0.53,321.09 v 0 c 3.6,8.22 9.66,13.96 18.16,17.2 8.46,3.24 16.64,3.07 24.55,-0.52 v 0 c 19.12,-8.98 37.31,-21.37 54.57,-37.18 v 0 c 9.01,-7.88 13.52,-16.51 13.52,-25.89 v 0 c 0,-8.97 -3.16,-16.61 -9.46,-22.89 -6.31,-6.28 -13.96,-9.43 -22.97,-9.43 v 0 c -9.36,0 -17.09,3.07 -23.2,9.21 v 0 c -12.61,12.22 -25.6,21.19 -38.96,26.93 v 0 c -8.26,3.94 -13.91,10.05 -16.96,18.32 -3.11,8.24 -2.86,16.31 0.75,24.25"
             style="fill:#1190cb;fill-opacity:1;fill-rule:nonzero;stroke:none"
             id="path22" /></g></g><g
         id="g24"><g
           id="g26"
           clip-path="url(#clipPath30)"><path
             d="m 1150.77,918.309 c -28.48,-49.18 -94.03,-162.356 -145.63,-251.485 -51.613,-89.129 -93.878,-162.433 -93.878,-162.976 0,-1.008 152.798,-265.289 154.198,-266.844 0.47,-0.465 50.99,49.336 134.82,132.879 l 134.04,133.578 h 290.41 l 1.41,5.66 c 12.76,49.723 60.95,85.406 112.55,83.313 29.89,-1.243 54.49,-12.024 75.51,-33.047 22.02,-21.949 32.92,-48.168 33,-78.809 0,-13.887 -1.4,-22.496 -5.76,-35.375 -5.45,-16.445 -13.47,-29.555 -25.69,-42.121 -9.42,-9.695 -18.13,-16.289 -29.5,-22.105 -18.37,-9.387 -34.32,-12.954 -54.95,-12.258 -13.55,0.465 -19.85,1.554 -32.07,5.586 -24.21,7.988 -46.08,25.289 -59.94,47.32 -5.84,9.23 -14.24,29.941 -14.24,34.984 0,0.93 -20.48,1.086 -136.07,1.086 H 1353 L 1221.3,326.445 1089.59,195.117 1146.1,97.6094 1202.61,0.0273438 h 207.6 V 48.5078 c 0,47.4727 0,48.4844 -1.48,48.4844 -2.88,0 -17.9,5.3518 -25.06,8.9178 -27.71,13.809 -48.11,37.469 -57.45,66.481 -4.04,12.566 -5.06,19.777 -5.06,34.363 0.08,14.738 1.48,23.426 5.84,35.836 24.52,69.738 107.57,97.586 168.91,56.781 8.88,-5.973 21.02,-17.531 27.55,-26.219 8.26,-10.937 17.44,-30.406 19.47,-41.422 l 0.54,-2.871 h 373.4 l 0.23,-2.402 c 0.23,-2.094 12.84,19.391 80.79,136.602 44.3,76.484 80.65,139.625 80.8,140.324 0.16,1.164 -203.39,353.722 -205.34,355.66 -0.54,0.543 -0.78,-0.543 -0.78,-2.871 v -3.645 h -142.83 l -61.88,-61.668 -61.81,-61.589 3.97,-7.993 c 4.98,-9.929 7.4,-16.675 9.73,-27.07 2.42,-10.785 2.57,-33.82 0.39,-44.141 -7.08,-32.5 -25.68,-58.64 -53.86,-75.32 -32.46,-19.234 -72.86,-20.633 -106.8,-3.566 -31.13,15.668 -52.85,43.902 -60.32,78.343 -2.41,11.329 -2.41,32.426 0,43.75 4.82,22.188 15.25,41.5 30.98,57.172 15.8,15.746 35.81,26.375 58.69,31.262 9.96,2.094 32.69,1.938 42.97,-0.391 13.77,-3.023 28.8,-9.23 38.99,-16.054 l 4.05,-2.715 68.11,67.871 68.11,67.875 69.82,0.156 69.75,0.235 -31.53,54.531 -31.6,54.455 H 1420.33 V 811.027 L 1311.67,702.738 1203,594.449 l 3.12,-6.129 c 30.67,-60.812 -1.33,-135.125 -67.26,-156.226 -11.75,-3.723 -20.16,-4.965 -34.17,-4.965 -17.9,0.078 -31.37,3.105 -47.56,10.707 -33.24,15.668 -57.05,47.394 -62.97,83.852 -1.476,9 -1.476,25.988 0,34.91 2.57,15.511 9.03,31.8 18.14,45.3 5.6,8.375 17.2,20.477 25.61,26.762 37.44,28 88.81,29.942 127.5,4.809 3.66,-2.406 6.93,-4.344 7.23,-4.344 0.32,0 45.85,45.145 101.2,100.297 l 100.57,100.223 v 178.025 h -171.8 l -51.84,-89.361"
             style="fill:#426cb4;fill-opacity:1;fill-rule:nonzero;stroke:none"
             id="path32" /></g></g><path
         d="m 1498.79,736.945 c -27.4,-4.652 -48.8,-25.207 -54.41,-52.281 -8.56,-41.187 23.04,-79.664 65.39,-79.586 19.46,0.078 38.84,9.074 51.06,23.891 5.29,6.285 10.66,16.523 13,24.668 1.48,5.195 1.79,7.91 1.79,17.761 0,9.852 -0.31,12.567 -1.79,17.766 -8.41,29.012 -34.95,48.867 -64.69,48.481 -3.66,-0.079 -8.32,-0.387 -10.35,-0.7 z M 1089.28,603.527 c -22.34,-5.664 -40.16,-22.265 -47.4,-44.214 -3.12,-9.622 -3.9,-23.274 -1.79,-33.434 5.05,-25.289 24.12,-45.07 49.43,-51.352 9.18,-2.25 23.5,-2.172 32.3,0.153 23.43,6.207 40.39,22.73 47.63,46.39 1.87,6.047 2.03,8.067 2.03,18.071 0,9.929 -0.23,12.023 -2.1,18.23 -6.54,21.567 -21.95,37.469 -43.28,44.68 -6.77,2.328 -8.33,2.562 -19.07,2.793 -9.65,0.156 -12.77,-0.078 -17.75,-1.317 z m 633.45,-57.793 c -25.68,-4.808 -46.62,-24.433 -52.54,-49.254 -2.1,-9 -2.1,-22.808 0,-31.652 7.47,-31.027 35.5,-51.894 67.65,-50.34 18.52,0.852 30.66,6.203 44.05,19.547 7.01,6.903 8.33,8.688 11.91,15.903 5.84,11.558 7.4,18.152 7.32,30.64 0,7.754 -0.39,11.481 -1.64,16.289 -4.43,16.446 -14.47,30.328 -28.72,39.485 -13.85,8.996 -31.76,12.488 -48.03,9.382 z M 1419.16,271.137 c -24.44,-5.352 -43.66,-23.739 -50.36,-48.172 -1.32,-4.965 -1.64,-8.223 -1.64,-16.988 0,-9.465 0.24,-11.711 2.11,-17.684 7.24,-24.047 25.06,-41.035 49.27,-46.777 7.39,-1.786 21.48,-1.786 29.27,0 23.97,5.429 42.89,23.117 49.66,46.386 2.33,8.145 2.88,23.039 1.09,31.727 -5.06,25.055 -24.52,45.148 -49.58,51.121 -7.63,1.781 -22.42,2.016 -29.82,0.387 z m 123.07,-93.239 c -4.52,-17.843 -15.1,-36.226 -28.88,-50.113 -14.09,-14.195 -31.99,-24.742 -50.21,-29.5545 l -6.62,-1.7813 -0.23,-48.1719 -0.15,-48.2499562 H 1787.5 L 1839.49,89.7773 c 28.65,49.4107 52.55,90.6017 53.17,91.6097 l 1.09,1.707 h -350.28 l -1.24,-5.196"
         style="fill:#426cb4;fill-opacity:1;fill-rule:nonzero;stroke:none"
         id="path34" /></g></g></svg>
